<svg width="16" height="16" viewBox="0 0 16 16" fill="none" xmlns="http://www.w3.org/2000/svg">
<rect opacity="0.01" x="16" y="16" width="16" height="16" transform="rotate(180 16 16)" fill="black"/>
<path fill-rule="evenodd" clip-rule="evenodd" d="M1.33325 7.99999C1.33325 4.3181 4.31802 1.33333 7.99992 1.33333C9.76803 1.33333 11.4637 2.03571 12.714 3.28595C13.9642 4.53619 14.6666 6.23188 14.6666 7.99999C14.6666 11.6819 11.6818 14.6667 7.99992 14.6667C4.31802 14.6667 1.33325 11.6819 1.33325 7.99999ZM7.99992 8.66666H10.6666C11.0348 8.66666 11.3333 8.36818 11.3333 7.99999C11.3333 7.6318 11.0348 7.33333 10.6666 7.33333H8.66659V5.33333C8.66659 4.96514 8.36811 4.66666 7.99992 4.66666C7.63173 4.66666 7.33325 4.96514 7.33325 5.33333V7.99999C7.33325 8.36818 7.63173 8.66666 7.99992 8.66666Z" fill="#8BACD9"/>
</svg>
